<?xml version="1.0" standalone="no"?>
<!DOCTYPE svg PUBLIC "-//W3C//DTD SVG 1.1//EN" "http://www.w3.org/Graphics/SVG/1.1/DTD/svg11.dtd" >
<!--
2013-9-30: Created.
-->
<svg>
<metadata>
Created by iconfont
</metadata>
<defs>

<font id="iconfont" horiz-adv-x="1024" >
  <font-face
    font-family="iconfont"
    font-weight="500"
    font-stretch="normal"
    units-per-em="1024"
    ascent="896"
    descent="-128"
  />
    <missing-glyph />
    
    <glyph glyph-name="xiehuo" unicode="&#58955;" d="M199.1424-0.9344H96.72704c-24.7424 0-44.8 20.0576-44.8 44.8V455.35104c0 117.86752 95.89248 213.76 213.76 213.76h69.09568c24.7424 0 44.8-20.0576 44.8-44.8s-20.0576-44.8-44.8-44.8h-69.09568c-68.46208 0-124.16-55.69792-124.16-124.16V88.6656h57.61536c24.7424 0 44.8-20.0576 44.8-44.8s-20.0576-44.8-44.8-44.8zM277.536-75.82592c-67.94624 0-123.22432 55.27808-123.22432 123.22304 0 67.94624 55.27808 123.22432 123.22432 123.22432 67.94624 0 123.22304-55.27808 123.22304-123.22432 0-67.94624-55.2768-123.22304-123.22304-123.22304z m0 156.84608c-18.5408 0-33.62432-15.08352-33.62432-33.62432s15.08352-33.62304 33.62432-33.62304c18.53952 0 33.62304 15.08224 33.62304 33.62304s-15.08224 33.62432-33.62304 33.62432zM465.85856-0.9344h-104.31872c-24.7424 0-44.8 20.0576-44.8 44.8s20.0576 44.8 44.8 44.8h59.51872V743.9872c0 55.05152 44.78848 99.84 99.84 99.84h406.37312c24.7424 0 44.8-20.0576 44.8-44.8s-20.0576-44.8-44.8-44.8H520.89856c-5.55136 0-10.24-4.68992-10.24-10.24v-700.1216c0-24.74368-20.0576-44.8-44.8-44.8zM771.7248 621.11744H569.8048c-24.7424 0-44.8 20.0576-44.8 44.8s20.0576 44.8 44.8 44.8h201.92c24.7424 0 44.8-20.0576 44.8-44.8s-20.0576-44.8-44.8-44.8zM706.336 480.31744H569.8048c-24.7424 0-44.8 20.0576-44.8 44.8s20.0576 44.8 44.8 44.8h136.5312c24.7424 0 44.8-20.0576 44.8-44.8s-20.0576-44.8-44.8-44.8zM595.70816-0.88576a41.60384 41.60384 0 0 0-41.43616 45.344l11.06432 122.42816a41.60256 41.60256 0 0 0 7.35488 20.11776L783.168 487.59168c19.18592 27.39968 50.70464 43.75808 84.31232 43.75808 21.16224 0 41.49632-6.40512 58.80192-18.52416 22.42688-15.70304 37.40928-39.264 42.18368-66.3424 4.77312-27.07712-1.24544-54.34112-16.94848-76.76928L741.04192 69.12384a41.60384 41.60384 0 0 0-16.38784-13.78944l-111.26144-52.27136a41.53856 41.53856 0 0 0-17.68448-3.9488z m51.4944 149.24544l-3.5392-39.15264 35.58272 16.7168L883.36384 417.4336c6.08 8.6848 3.88096 21.1584-4.80256 27.2384-4.10496 2.8736-8.29184 3.47648-11.08096 3.47648-6.48832 0-12.52992-3.09504-16.16-8.27904L647.20256 148.35968zM876.62848 296.93312a38.2272 38.2272 0 0 0-21.99168 6.94784l-100.19712 70.15808c-17.37216 12.16512-21.59488 36.1088-9.43104 53.48096s36.10624 21.59488 53.48096 9.43104l100.19712-70.1568c17.37216-12.16512 21.59488-36.1088 9.43104-53.48096-7.4688-10.67008-19.38432-16.38016-31.48928-16.38016z"  horiz-adv-x="1024" />

    
    <glyph glyph-name="wode" unicode="&#58956;" d="M512 280.695c-158.124 0-286.767 128.643-286.767 286.767s128.643 286.767 286.767 286.767 286.767-128.644 286.767-286.768c0-158.123-128.643-286.765-286.767-286.765zM512 745.487c-98.162 0-178.025-79.862-178.025-178.026 0-98.162 79.861-178.025 178.025-178.025s178.025 79.861 178.025 178.025c0 98.165-79.862 178.026-178.025 178.026zM878.613-86.227c-30.027 0-54.371 24.342-54.371 54.371 0 172.172-140.070 312.242-312.242 312.242s-312.242-140.070-312.242-312.242c0-30.027-24.342-54.371-54.371-54.371s-54.371 24.342-54.371 54.371c0 112.451 43.79 218.165 123.303 297.68 79.515 79.513 185.231 123.303 297.68 123.303s218.165-43.789 297.68-123.303c79.514-79.515 123.303-185.231 123.303-297.68 0-30.027-24.342-54.371-54.371-54.371z"  horiz-adv-x="1024" />

    
    <glyph glyph-name="xuanzekuang" unicode="&#58957;" d="M818.655-75.545h-613.312c-84.303 0-152.886 66.343-152.886 147.89v623.306c0 81.549 68.585 147.89 152.886 147.89h613.312c84.303 0 152.886-66.342 152.886-147.89v-623.306c0-81.548-68.585-147.89-152.886-147.89zM205.345 772.845c-45.318 0-82.19-34.628-82.19-77.191v-623.306c0-42.564 36.869-77.191 82.19-77.191h613.312c45.318 0 82.19 34.627 82.19 77.191v623.306c0 42.563-36.869 77.191-82.19 77.191h-613.312z"  horiz-adv-x="1024" />

    
    <glyph glyph-name="xuanzhong" unicode="&#58958;" d="M839.099 836.474h-654.199c-69.243 0-125.375-53.746-125.375-120.044v-664.86c0-66.299 56.132-120.044 125.375-120.044h654.199c69.243 0 125.375 53.746 125.375 120.044v664.86c0 66.299-56.132 120.044-125.375 120.044zM840.094 507.246l-331.814-331.814c-11.779-11.78-27.219-17.67-42.66-17.67s-30.879 5.89-42.66 17.67l-239.057 239.057c-23.558 23.558-23.558 61.758 0 85.319s61.758 23.558 85.319 0l196.397-196.397 289.155 289.155c23.558 23.558 61.758 23.558 85.319 0s23.558-61.758 0-85.319z"  horiz-adv-x="1024" />

    
    <glyph glyph-name="jiantou" unicode="&#58959;" d="M730.564 345.54c-0.36-0.359-0.856-0.449-1.214-0.788l-359.113-394.661c-21.692-21.242-56.657-21.489-78.054-0.518-21.398 20.972-21.173 55.193 0.54 76.459l325.045 357.221-325.698 357.92c-21.69 21.263-21.713 55.689-0.045 76.929 21.691 21.218 56.837 21.196 78.55-0.045l359.966-395.608c21.691-21.241 21.713-55.689 0.022-76.908z"  horiz-adv-x="1024" />

    
    <glyph glyph-name="dingdan" unicode="&#58960;" d="M749.010-76.915h-474.022c-79.501 0-144.179 64.678-144.179 144.179v612.227c0 79.501 64.678 144.179 144.179 144.179h61.891c24.129 0 43.691-19.562 43.691-43.691 0-24.13-19.562-43.691-43.691-43.691h-61.891c-31.317 0-56.798-25.479-56.798-56.798v-612.227c0-31.318 25.481-56.798 56.798-56.798h474.022c31.318 0 56.798 25.479 56.798 56.798v612.227c0 31.318-25.479 56.798-56.798 56.798h-61.891c-24.129 0-43.691 19.561-43.691 43.691 0 24.129 19.562 43.691 43.691 43.691h61.891c79.501 0 144.179-64.678 144.179-144.179v-612.227c0-79.501-64.678-144.179-144.179-144.179zM564.060 714.444h-104.123c-36.195 0-65.536 29.341-65.536 65.536s29.341 65.536 65.536 65.536h104.123c36.195 0 65.536-29.341 65.536-65.536s-29.341-65.536-65.536-65.536zM679.372 493.808h-334.743c-24.129 0-43.691 19.562-43.691 43.691s19.562 43.691 43.691 43.691h334.743c24.129 0 43.691-19.562 43.691-43.691s-19.562-43.691-43.691-43.691zM679.372 322.331h-334.743c-24.129 0-43.691 19.562-43.691 43.691s19.562 43.691 43.691 43.691h334.743c24.129 0 43.691-19.562 43.691-43.691s-19.562-43.691-43.691-43.691zM679.372 150.853h-334.743c-24.129 0-43.691 19.562-43.691 43.691s19.562 43.691 43.691 43.691h334.743c24.129 0 43.691-19.562 43.691-43.691s-19.562-43.691-43.691-43.691z"  horiz-adv-x="1024" />

    
    <glyph glyph-name="wodedianpu" unicode="&#58961;" d="M771.773 321.901c-99.633 0-180.692 81.057-180.692 180.689 0 27.766 22.509 50.275 50.275 50.275s50.275-22.509 50.275-50.275c0-44.189 35.952-80.14 80.142-80.14 42.628 0 77.593 33.463 80.006 75.499l-47.295 223.179h-584.258l-47.999-223.245c2.445-42.004 37.395-75.434 80.002-75.434 44.189 0 80.14 35.952 80.14 80.14 0 27.766 22.509 50.275 50.275 50.275s50.275-22.509 50.275-50.275c0-99.633-81.057-180.689-180.689-180.689-99.632 0-180.687 81.057-180.687 180.689 0 3.554 0.375 7.095 1.125 10.565l57.793 268.812c4.98 23.163 25.457 39.708 49.151 39.708h665.612c23.751 0 44.259-16.619 49.184-39.852l56.965-268.812c0.726-3.425 1.091-6.918 1.091-10.423 0-99.633-81.054-180.689-180.687-180.689zM512 321.901c-99.632 0-180.687 81.057-180.687 180.689 0 27.766 22.509 50.275 50.275 50.275s50.275-22.509 50.275-50.275c0-44.189 35.948-80.14 80.139-80.14s80.14 35.952 80.14 80.14c0 27.766 22.509 50.275 50.275 50.275s50.275-22.509 50.275-50.275c0-99.633-81.057-180.689-180.689-180.689zM870.474-53.677h-716.949c-27.766 0-50.275 22.509-50.275 50.275v249.17c0 27.767 22.509 50.275 50.275 50.275s50.275-22.508 50.275-50.275v-198.895h616.4v198.895c0 27.767 22.508 50.275 50.275 50.275s50.275-22.508 50.275-50.275v-249.169c0-27.766-22.509-50.276-50.275-50.276z"  horiz-adv-x="1024" />

    
    <glyph glyph-name="huodong" unicode="&#58962;" d="M895.836 358.226h-767.674c-41.116 0-74.565 33.453-74.565 74.565v155.749c0 41.116 33.45 74.565 74.565 74.565h767.674c41.116 0 74.565-33.45 74.565-74.565v-155.749c0-41.113-33.45-74.565-74.565-74.565zM136.449 441.076h751.103v139.178h-751.103v-139.178zM850.87-75.056h-677.74c-41.365 0-75.020 33.45-75.020 74.565v378.603c0 22.879 18.547 41.425 41.425 41.425s41.425-18.547 41.425-41.425v-370.318h662.078v370.318c0 22.879 18.546 41.425 41.425 41.425s41.425-18.547 41.425-41.425v-378.603c0-41.117-33.654-74.565-75.020-74.565zM230.154 591.21c-0.005 0-0.015 0-0.021 0-8.916 0-17.172 2.832-23.918 7.644-47.885 33.718-75.421 78.835-75.421 123.693 0 32.052 14.119 61.589 39.761 83.175 37.994 31.985 99.206 44.414 163.737 33.247 48.46-8.384 94.299-28.967 129.074-57.964 38.882-32.421 60.298-72.23 60.298-112.098 0-22.879-18.547-41.425-41.425-41.425s-41.425 18.547-41.425 41.425c0 31.89-51.596 76.479-120.647 88.425-48.031 8.315-81.872-2.882-96.255-14.992-9.203-7.747-10.268-15.006-10.268-19.793 0-17.019 15.477-38.49 40.394-56.033 18.707-13.172 23.194-39.014 10.023-57.722-8.062-11.456-20.885-17.581-33.904-17.581zM793.846 591.21c-13.021 0-25.842 6.123-33.908 17.58-13.172 18.707-8.684 44.548 10.023 57.722 24.916 17.546 40.396 39.015 40.396 56.033 0 4.788-1.066 12.047-10.267 19.793-14.387 12.11-48.229 23.3-96.259 14.992-69.052-11.946-120.647-56.539-120.647-88.425 0-22.879-18.547-41.425-41.425-41.425s-41.425 18.547-41.425 41.425c0 39.868 21.415 79.678 60.298 112.098 34.778 28.996 80.618 49.581 129.075 57.964 64.524 11.163 125.744-1.262 163.737-33.248 25.639-21.585 39.761-51.124 39.761-83.173 0-44.857-27.536-89.97-75.55-123.777-6.62-4.726-14.875-7.556-23.791-7.556-0.005 0-0.015 0-0.020 0zM512-75.056c-22.879 0-41.425 18.547-41.425 41.425v693.422c0 22.879 18.547 41.425 41.425 41.425s41.425-18.547 41.425-41.425v-693.422c0-22.879-18.547-41.425-41.425-41.425z"  horiz-adv-x="1024" />

    
    <glyph glyph-name="gouwulan" unicode="&#58963;" d="M918.441 422.209h-812.881c-27.766 0-50.275 22.509-50.275 50.275s22.509 50.275 50.275 50.275h812.882c27.766 0 50.275-22.509 50.275-50.275s-22.511-50.275-50.276-50.275zM810.836 512.703h-597.668c-47.756 0-86.473-38.717-86.473-86.473l60.331-377.265c0-47.756 38.717-86.473 86.473-86.473h477.008c47.756 0 86.473 38.717 86.473 86.473l60.331 377.265c0 47.762-38.717 86.473-86.473 86.473zM382.894 148.31c0-27.766-22.508-50.275-50.275-50.275s-50.275 22.509-50.275 50.275v178.578c0 27.767 22.509 50.275 50.275 50.275 27.767 0 50.275-22.508 50.275-50.275v-178.578zM562.275 148.31c0-27.766-22.508-50.275-50.275-50.275s-50.275 22.509-50.275 50.275v178.578c0 27.767 22.509 50.275 50.275 50.275 27.767 0 50.275-22.508 50.275-50.275v-178.578zM741.655 148.31c0-27.766-22.508-50.275-50.275-50.275s-50.275 22.509-50.275 50.275v178.578c0 27.767 22.508 50.275 50.275 50.275s50.275-22.508 50.275-50.275v-178.578zM347.817 562.164l92.547 168.897c13.343 24.35 4.42 54.907-19.931 68.25-24.35 13.344-54.908 4.42-68.25-19.931l-119.022-217.214h114.657zM676.183 562.164l-92.547 168.897c-13.343 24.35-4.42 54.907 19.93 68.25 24.352 13.344 54.909 4.42 68.25-19.931l119.022-217.214h-114.656z"  horiz-adv-x="1024" />

    
    <glyph glyph-name="sousuo" unicode="&#58964;" d="M424.024 129.902c-91.619 0-177.754 35.679-242.538 100.464-133.735 133.737-133.735 351.344 0 485.078 64.784 64.784 150.919 100.462 242.538 100.462s177.754-35.677 242.539-100.462c133.733-133.735 133.735-351.34 0-485.078-64.785-64.783-150.922-100.464-242.539-100.464zM424.024 699.915c-60.637 0-117.643-23.613-160.523-66.489-88.512-88.51-88.51-232.53 0-321.040 42.876-42.876 99.885-66.491 160.523-66.491s117.643 23.614 160.523 66.491c88.51 88.51 88.51 232.53 0 321.040-42.876 42.876-99.885 66.489-160.523 66.489zM886.838-47.904c-14.842 0-29.684 5.663-41.010 16.986l-261.286 261.285c-22.647 22.649-22.647 59.369 0 82.018 22.647 22.647 59.37 22.647 82.018 0l261.286-261.286c22.647-22.649 22.647-59.369 0-82.018-11.325-11.322-26.167-16.985-41.010-16.985z"  horiz-adv-x="1024" />

    
    <glyph glyph-name="diandian" unicode="&#58965;" d="M365.066 698.61c0 0 0 0 0 0 0-58.569 47.479-106.048 106.048-106.048 58.569 0 106.048 47.479 106.048 106.048 0 0 0 0 0 0 0 58.569-47.479 106.048-106.048 106.048-58.569 0-106.048-47.479-106.048-106.048 0 0 0 0 0 0zM365.066 384c0 0 0 0 0 0 0-58.569 47.479-106.048 106.048-106.048 58.569 0 106.048 47.479 106.048 106.048 0 0 0 0 0 0 0 58.569-47.479 106.048-106.048 106.048-58.569 0-106.048-47.479-106.048-106.048 0 0 0 0 0 0zM365.066 69.39c0 0 0 0 0 0 0-58.569 47.479-106.048 106.048-106.048 58.569 0 106.048 47.479 106.048 106.048 0 0 0 0 0 0 0 58.569-47.479 106.048-106.048 106.048-58.569 0-106.048-47.479-106.048-106.048 0 0 0 0 0 0z"  horiz-adv-x="1024" />

    
    <glyph glyph-name="guanbi" unicode="&#58966;" d="M155.252-47.825c-19.213 0-38.429 7.332-53.089 21.988-29.317 29.321-29.317 76.855 0 106.175l713.494 713.494c29.317 29.321 76.853 29.321 106.175 0 29.317-29.317 29.317-76.855 0-106.175l-713.494-713.494c-14.66-14.66-33.874-21.988-53.089-21.988zM868.749-47.824c-19.213 0-38.428 7.332-53.089 21.988l-713.494 713.493c-29.317 29.317-29.317 76.857 0 106.175 29.316 29.317 76.855 29.321 106.174 0l713.494-713.492c29.317-29.321 29.317-76.855 0-106.175-14.657-14.661-33.871-21.993-53.087-21.993z"  horiz-adv-x="1024" />

    
    <glyph glyph-name="gouwuche" unicode="&#58967;" d="M848.66 101.479h-564.219c-23.054 0-42.821 16.461-46.996 39.133l-111.207 603.945c-1.098 2.857-3.151 4.539-4.769 5.472-1.814 1.050-4.721 2.1-8.252 1.154-25.491-6.831-51.696 8.298-58.526 33.789s8.299 51.696 33.791 58.526c27.415 7.347 56.101 3.547 80.775-10.7 24.675-14.246 42.309-37.19 49.655-64.605 0.329-1.226 0.608-2.466 0.838-3.714l104.483-567.427h524.429c26.391 0 47.787-21.395 47.787-47.787s-21.397-47.787-47.79-47.787zM419.242 243.932c-24.941-0.001-45.947 19.354-47.634 44.604-1.759 26.333 18.163 49.105 44.496 50.864l408.89 27.307c0.953 0.068 2.063 0.107 3.183 0.107 0 0 0 0 0.001 0 5.921 0 10.923 5.003 10.923 10.923 0 1.146 0.041 2.29 0.124 3.433l12.113 168.238c-0.535 5.461-5.296 9.899-10.873 9.899-0.723 0-1.45 0.016-2.172 0.049l-600.038 27.307c-26.365 1.2-46.764 23.546-45.565 49.909 1.2 26.364 23.529 46.747 49.909 45.565l599.111-27.264c58.149-0.67 105.249-48.182 105.249-106.49 0-1.146-0.041-2.29-0.124-3.433l-12.181-169.179c-1.040-57.213-47.421-103.55-104.652-104.515l-407.531-27.217c-1.084-0.073-2.161-0.108-3.232-0.108zM850.265-1.127c0-41.473-33.62-75.093-75.093-75.093s-75.093 33.62-75.093 75.093 33.62 75.093 75.093 75.093 75.093-33.62 75.093-75.093M481.964-1.127c0-41.473-33.62-75.093-75.093-75.093s-75.093 33.62-75.093 75.093 33.62 75.093 75.093 75.093 75.093-33.62 75.093-75.093z"  horiz-adv-x="1024" />

    
    <glyph glyph-name="tulie" unicode="&#58968;" d="M380.199 463.456h-218.453c-28.15 0-50.973 22.821-50.973 50.973v218.453c0 28.15 22.821 50.973 50.973 50.973h218.453c28.15 0 50.973-22.821 50.973-50.973v-218.453c0-28.15-22.821-50.973-50.973-50.973zM380.199 427.046h-218.453c-48.182 0-87.381 39.199-87.381 87.381v218.453c0 48.182 39.199 87.381 87.381 87.381h218.453c48.182 0 87.381-39.199 87.381-87.381v-218.453c0-48.182-39.199-87.381-87.381-87.381zM161.746 747.445c-8.031 0-14.563-6.533-14.563-14.563v-218.453c0-8.031 6.533-14.563 14.563-14.563h218.453c8.031 0 14.563 6.533 14.563 14.563v218.453c0 8.031-6.533 14.563-14.563 14.563h-218.453zM380.199-15.854h-218.453c-28.15 0-50.973 22.821-50.973 50.973v218.453c0 28.15 22.821 50.973 50.973 50.973h218.453c28.15 0 50.973-22.821 50.973-50.973v-218.453c0-28.15-22.821-50.973-50.973-50.973zM380.199-52.262h-218.453c-48.182 0-87.381 39.199-87.381 87.381v218.453c0 48.182 39.199 87.381 87.381 87.381h218.453c48.182 0 87.381-39.199 87.381-87.381v-218.453c0-48.182-39.199-87.381-87.381-87.381zM161.746 268.135c-8.031 0-14.563-6.533-14.563-14.563v-218.453c0-8.031 6.533-14.563 14.563-14.563h218.453c8.031 0 14.563 6.533 14.563 14.563v218.453c0 8.031-6.533 14.563-14.563 14.563h-218.453zM860.797 463.456h-218.453c-28.15 0-50.973 22.821-50.973 50.973v218.453c0 28.15 22.821 50.973 50.973 50.973h218.453c28.15 0 50.973-22.821 50.973-50.973v-218.453c0-28.15-22.821-50.973-50.973-50.973zM860.797 427.046h-218.453c-48.182 0-87.381 39.199-87.381 87.381v218.453c0 48.182 39.199 87.381 87.381 87.381h218.453c48.182 0 87.381-39.199 87.381-87.381v-218.453c0-48.182-39.199-87.381-87.381-87.381zM642.343 747.445c-8.031 0-14.563-6.533-14.563-14.563v-218.453c0-8.031 6.533-14.563 14.563-14.563h218.453c8.031 0 14.563 6.533 14.563 14.563v218.453c0 8.031-6.533 14.563-14.563 14.563h-218.453zM860.797-52.262h-218.453c-48.182 0-87.381 39.199-87.381 87.381v218.453c0 48.182 39.199 87.381 87.381 87.381h218.453c48.182 0 87.381-39.199 87.381-87.381v-218.453c0-48.182-39.199-87.381-87.381-87.381zM642.343 268.135c-8.031 0-14.563-6.533-14.563-14.563v-218.453c0-8.031 6.533-14.563 14.563-14.563h218.453c8.031 0 14.563 6.533 14.563 14.563v218.453c0 8.031-6.533 14.563-14.563 14.563h-218.453z"  horiz-adv-x="1024" />

    
    <glyph glyph-name="liebiao" unicode="&#58969;" d="M380.199 427.046h-218.453c-48.182 0-87.381 39.199-87.381 87.381v218.453c0 48.182 39.199 87.381 87.381 87.381h218.453c48.182 0 87.381-39.199 87.381-87.381v-218.453c0-48.182-39.199-87.381-87.381-87.381zM161.746 747.445c-8.031 0-14.563-6.533-14.563-14.563v-218.453c0-8.031 6.533-14.563 14.563-14.563h218.453c8.031 0 14.563 6.533 14.563 14.563v218.453c0 8.031-6.533 14.563-14.563 14.563h-218.453zM380.199-52.262h-218.453c-48.182 0-87.381 39.199-87.381 87.381v218.453c0 48.182 39.199 87.381 87.381 87.381h218.453c48.182 0 87.381-39.199 87.381-87.381v-218.453c0-48.182-39.199-87.381-87.381-87.381zM161.746 268.135c-8.031 0-14.563-6.533-14.563-14.563v-218.453c0-8.031 6.533-14.563 14.563-14.563h218.453c8.031 0 14.563 6.533 14.563 14.563v218.453c0 8.031-6.533 14.563-14.563 14.563h-218.453zM911.77 661.52h-320.398c-20.108 0-36.409 16.301-36.409 36.409s16.301 36.409 36.409 36.409h320.398c20.108 0 36.409-16.301 36.409-36.409s-16.301-36.409-36.409-36.409zM911.77 512.972h-320.398c-20.108 0-36.409 16.301-36.409 36.409s16.301 36.409 36.409 36.409h320.398c20.108 0 36.409-16.301 36.409-36.409s-16.301-36.409-36.409-36.409zM911.77 182.21h-320.398c-20.108 0-36.409 16.301-36.409 36.409s16.301 36.409 36.409 36.409h320.398c20.108 0 36.409-16.301 36.409-36.409s-16.301-36.409-36.409-36.409zM911.77 33.662h-320.398c-20.108 0-36.409 16.301-36.409 36.409s16.301 36.409 36.409 36.409h320.398c20.108 0 36.409-16.301 36.409-36.409s-16.301-36.409-36.409-36.409z"  horiz-adv-x="1024" />

    
    <glyph glyph-name="jia" unicode="&#58970;" d="M512 825.717c-244.514 0-442.732-197.763-442.732-441.717s198.218-441.717 442.732-441.717 442.732 197.763 442.732 441.717-198.218 441.717-442.732 441.717M735.045 337.396h-176.442v-176.442c0-25.738-20.866-46.604-46.604-46.604s-46.604 20.866-46.604 46.604v176.442h-176.442c-25.738 0-46.604 20.866-46.604 46.604s20.866 46.604 46.604 46.604h176.442v176.442c0 25.738 20.866 46.604 46.604 46.604s46.604-20.866 46.604-46.604v-176.442h176.442c25.738 0 46.604-20.866 46.604-46.604s-20.866-46.604-46.604-46.604z"  horiz-adv-x="1024" />

    
    <glyph glyph-name="jian" unicode="&#58971;" d="M512-52.907c-116.702 0-226.419 45.445-308.94 127.967-82.519 82.519-127.967 192.238-127.967 308.94s45.446 226.419 127.967 308.94 192.238 127.967 308.94 127.967 226.42-45.446 308.94-127.967c82.522-82.522 127.967-192.238 127.967-308.94s-45.445-226.42-127.967-308.94c-82.519-82.522-192.238-127.967-308.94-127.967zM512 777.216c-216.819 0-393.216-176.397-393.216-393.216 0-216.82 176.397-393.216 393.216-393.216 216.82 0 393.216 176.396 393.216 393.216 0 216.819-176.396 393.216-393.216 393.216zM721.104 340.309h-418.209c-24.129 0-43.691 19.562-43.691 43.691s19.562 43.691 43.691 43.691h418.209c24.129 0 43.691-19.562 43.691-43.691s-19.562-43.691-43.691-43.691z"  horiz-adv-x="1024" />

    
    <glyph glyph-name="zuojiantou" unicode="&#58972;" d="M277.382 342.978c-23.136 22.633-23.113 59.378 0.024 82.035l383.961 421.98c23.16 22.657 60.65 22.68 83.786 0.048 23.112-22.657 23.088-59.378-0.048-82.058l-347.407-381.779 346.713-381.035c23.16-22.681 23.401-59.186 0.576-81.555-22.825-22.368-60.122-22.104-83.258 0.553l-383.052 420.97c-0.382 0.361-0.91 0.457-1.294 0.84z"  horiz-adv-x="1024" />

    
    <glyph glyph-name="saoma" unicode="&#58973;" d="M883.18592 88.00768c0-42.16192-34.31296-76.47232-76.48128-76.47232H653.60512v-70.5152h153.09952c81.05088 0 146.99776 65.93792 146.99776 146.98752V253.2096h-70.51648v-165.20192zM139.63648 88.00768V253.2096H69.12v-165.20192c0-81.05216 65.93664-146.98752 146.9888-146.98752h159.15008v70.5152H216.1088c-42.1696 0-76.47232 34.30912-76.47232 76.47232zM139.63648 678.59584c0 42.17856 34.30272 76.48896 76.47232 76.48896h159.15008V825.6H216.1088C135.05536 825.6 69.12 759.64672 69.12 678.59584v-147.04h70.51648V678.59584zM806.70464 825.6H653.60512v-70.5152h153.09952c42.1696 0 76.48128-34.31168 76.48128-76.49024v-147.04h70.51648V678.59584C953.7024 759.64672 887.7568 825.6 806.70464 825.6zM71.8848 433.25312h879.05152v-88.14592H71.8848v88.14592z"  horiz-adv-x="1024" />

    
    <glyph glyph-name="gouxuanzhong" unicode="&#58974;" d="M512 834.742c-248.938 0-450.742-201.804-450.742-450.742s201.804-450.742 450.742-450.742 450.742 201.804 450.742 450.742-201.804 450.742-450.742 450.742zM828.807 503.007l-320.398-320.398c-11.374-11.376-26.283-17.062-41.193-17.062s-29.818 5.686-41.193 17.062l-230.832 230.832c-22.75 22.75-22.75 59.633 0 82.383s59.633 22.75 82.383 0l189.641-189.641 279.206 279.206c22.75 22.75 59.633 22.75 82.383 0s22.75-59.633 0-82.383z"  horiz-adv-x="1024" />

    
    <glyph glyph-name="gouxuan" unicode="&#58975;" d="M512-72.704c-61.639 0-121.453 12.080-177.78 35.904-54.388 23.005-103.226 55.93-145.158 97.861-41.931 41.932-74.858 90.77-97.861 145.158-23.824 56.326-35.904 116.141-35.904 177.78 0 61.639 12.080 121.453 35.904 177.78 23.005 54.388 55.93 103.226 97.861 145.158 41.932 41.931 90.77 74.858 145.158 97.861 56.326 23.824 116.141 35.904 177.78 35.904 61.639 0 121.453-12.080 177.78-35.904 54.388-23.005 103.226-55.93 145.158-97.861 41.932-41.932 74.858-90.77 97.861-145.158 23.824-56.326 35.904-116.141 35.904-177.78 0-61.639-12.080-121.453-35.904-177.78-23.005-54.388-55.93-103.226-97.861-145.158s-90.77-74.858-145.158-97.861c-56.326-23.824-116.141-35.904-177.78-35.904zM512 772.437c-214.186 0-388.437-174.252-388.437-388.437s174.252-388.437 388.437-388.437 388.437 174.252 388.437 388.437-174.252 388.437-388.437 388.437z"  horiz-adv-x="1024" />

    
    <glyph glyph-name="shang" unicode="&#58976;" d="M565.514 622.779c0.393-0.394 0.491-0.935 0.861-1.326l431.062-392.233c23.201-23.692 23.471-61.883 0.566-85.254-22.906-23.374-60.284-23.126-83.511 0.589l-390.168 355.025-390.933-355.739c-23.224-23.691-60.826-23.716-84.025-0.049-23.174 23.692-23.151 62.079 0.049 85.795l432.096 393.168c23.199 23.692 60.827 23.716 84.001 0.024z"  horiz-adv-x="1048" />

    
    <glyph glyph-name="xia" unicode="&#58977;" d="M565.514 143.814c0.393 0.394 0.491 0.935 0.861 1.326l431.062 392.233c23.201 23.692 23.471 61.882 0.566 85.254-22.906 23.374-60.284 23.126-83.511-0.589l-390.168-355.025-390.933 355.739c-23.224 23.691-60.826 23.716-84.025 0.049-23.174-23.692-23.151-62.079 0.049-85.795l432.096-393.168c23.199-23.692 60.827-23.714 84.001-0.024z"  horiz-adv-x="1048" />

    
    <glyph glyph-name="shanchu" unicode="&#58978;" d="M937.05216 748.5696H689.03552l-68.19456 67.58016A31.22944 31.22944 0 0 1 597.20448 826.88H427.3024v-0.08832c-8.00896 0-16.05504-3.06048-22.13504-9.17632l-68.8576-69.04576H87.46624C70.26688 748.5696 56.32 734.78016 56.32 717.77408c0-16.98944 13.94688-30.7776 31.14624-30.7776h261.73568a31.23712 31.23712 0 0 1 23.74528 10.8544l67.264 67.456H584.3968l69.80736-69.17248c6.08-6.02752 14.05312-9.0496 22.02752-9.0496v-0.0896h260.82048c17.20192 0 31.14752 13.78688 31.14752 30.7776 0 17.00864-13.94432 30.7968-31.14752 30.7968zM377.31072 105.0048V563.64416c0 17.00608-13.93152 30.79424-31.13088 30.79424-17.18144 0-31.1296-13.78688-31.1296-30.79424v-458.63936c0-17.0048 13.9456-30.7776 31.1296-30.7776 17.19936 0 31.13088 13.7728 31.13088 30.7776zM861.3504 616.57088c-17.20192 0-31.14752-13.78944-31.14752-30.7776h-0.00256v-544.16c0-11.59808-4.82688-22.1504-12.57216-29.82272-0.4096-0.40448-0.83456-0.82944-1.23264-1.27232-7.5648-6.912-17.73952-11.1552-28.928-11.1552h-550.4128c-11.72608 0-22.4192 4.77312-30.16192 12.42752-7.744 7.67232-12.57216 18.24256-12.57216 29.82272V585.79328c0 16.98816-13.94304 30.77632-31.14752 30.77632-17.20064 0-31.14624-13.78816-31.14624-30.77632v-544.16256c0-28.58496 11.81696-54.55232 30.82752-73.34272 19.02336-18.8096 45.29152-30.49216 74.2016-30.49216h550.41408c27.81952 0 53.248 10.9248 72.16512 28.63744a48.61184 48.61184 0 0 1 2.03776 1.85472c19.008 18.7904 30.82752 44.7744 30.82752 73.34272V585.79328c-0.00256 16.98816-13.95072 30.7776-31.15008 30.7776zM543.38304 105.0048V563.64416c0 17.00608-13.93024 30.79424-31.1296 30.79424-17.18272 0-31.13088-13.78688-31.13088-30.79424v-458.63936c0-17.0048 13.94688-30.7776 31.13088-30.7776 17.19936 0 31.1296 13.7728 31.1296 30.7776zM709.472 105.0048V563.64416c0 17.00608-13.94688 30.79424-31.1296 30.79424-17.19808 0-31.15008-13.78688-31.15008-30.79424v-458.63936c0-17.0048 13.94944-30.7776 31.15008-30.7776 17.18272 0 31.1296 13.7728 31.1296 30.7776z"  horiz-adv-x="1024" />

    
    <glyph glyph-name="tianjia" unicode="&#58979;" d="M512-70.4c-61.32736 0-120.83968 12.02048-176.88448 35.7248-54.11456 22.88896-102.70592 55.648-144.42496 97.36576-41.71904 41.71904-74.4768 90.3104-97.36576 144.42368C69.6192 263.1616 57.6 322.67392 57.6 384c0 61.32736 12.0192 120.83968 35.7248 176.88448 22.88896 54.11456 55.64672 102.70592 97.36576 144.42496 41.71904 41.71904 90.3104 74.47808 144.42496 97.36576C391.16032 826.3808 450.67264 838.4 512 838.4c61.32736 0 120.83968-12.0192 176.88448-35.7248 54.11328-22.88896 102.70592-55.64672 144.42496-97.36576 41.71904-41.71904 74.47808-90.3104 97.36448-144.42496C954.37952 504.83968 966.4 445.32736 966.4 384c0-81.4272-21.80096-161.32096-63.0464-231.04256-10.79808-18.2528-34.34752-24.29696-52.6016-13.49888-18.2528 10.79808-24.29568 34.3488-13.49888 52.6016C871.49824 249.94816 889.6 316.32128 889.6 384c0 208.20992-169.39136 377.6-377.6 377.6-208.20992 0-377.6-169.39008-377.6-377.6 0-208.20864 169.39008-377.6 377.6-377.6 58.304 0 114.1888 12.91776 166.1056 38.39232 19.04256 9.34016 42.048 1.47968 51.38944-17.55776 9.34272-19.03872 1.48096-42.048-17.55776-51.38944C649.4016-54.8416 582.13248-70.4 512-70.4zM736 345.6H288c-21.20704 0-38.4 17.19296-38.4 38.4s17.19296 38.4 38.4 38.4h448c21.20704 0 38.4-17.19296 38.4-38.4s-17.19296-38.4-38.4-38.4zM512 121.6c-21.20704 0-38.4 17.19296-38.4 38.4V608c0 21.20704 17.19296 38.4 38.4 38.4s38.4-17.19296 38.4-38.4v-448c0-21.20704-17.19296-38.4-38.4-38.4z"  horiz-adv-x="1024" />

    
    <glyph glyph-name="icon-test" unicode="&#58980;" d="M893.526 329.629h-763.053c-30.027 0-54.371 24.342-54.371 54.371s24.342 54.371 54.371 54.371h763.053c30.027 0 54.371-24.342 54.371-54.371s-24.342-54.371-54.371-54.371zM512-51.898c-30.027 0-54.371 24.342-54.371 54.371v763.053c0 30.027 24.342 54.371 54.371 54.371s54.371-24.342 54.371-54.371v-763.053c0-30.027-24.342-54.371-54.371-54.371z"  horiz-adv-x="1024" />

    
    <glyph glyph-name="jianqu" unicode="&#58998;" d="M512 826.732c-244.512 0-442.732-198.22-442.732-442.732s198.22-442.732 442.732-442.732 442.732 198.22 442.732 442.732-198.22 442.732-442.732 442.732zM735.075 337.396h-446.15c-25.788 0-46.604 20.816-46.604 46.604s20.816 46.604 46.604 46.604h446.15c25.788 0 46.604-20.816 46.604-46.604s-20.972-46.604-46.604-46.604z"  horiz-adv-x="1024" />

    
    <glyph glyph-name="zhiweishenfen" unicode="&#58999;" d="M459.3664 369.2544c24.9856 25.8048 40.3456 60.928 40.3456 99.5328 0 79.0528-64.3072 143.36-143.36 143.36s-143.36-64.3072-143.36-143.36c0-38.6048 15.36-73.728 40.3456-99.5328-61.2352-35.6352-102.4-101.888-102.4-177.664 0-19.7632 16.0768-35.84 35.84-35.84s35.84 16.0768 35.84 35.84c0 73.728 60.0064 133.7344 133.7344 133.7344s133.7344-60.0064 133.7344-133.7344c0-19.7632 16.0768-35.84 35.84-35.84s35.84 16.0768 35.84 35.84c0.1024 75.776-41.1648 142.1312-102.4 177.664zM356.352 540.5696c39.5264 0 71.68-32.1536 71.68-71.68s-32.1536-71.68-71.68-71.68-71.68 32.1536-71.68 71.68 32.1536 71.68 71.68 71.68zM837.2224 155.7504H618.1888c-19.7632 0-35.84 16.0768-35.84 35.84s16.0768 35.84 35.84 35.84h219.0336c19.7632 0 35.84-16.0768 35.84-35.84s-15.9744-35.84-35.84-35.84zM837.2224 406.7328H687.0016c-19.7632 0-35.84 16.0768-35.84 35.84s16.0768 35.84 35.84 35.84h150.2208c19.7632 0 35.84-16.0768 35.84-35.84s-15.9744-35.84-35.84-35.84zM837.2224 281.2928H687.0016c-19.7632 0-35.84 16.0768-35.84 35.84s16.0768 35.84 35.84 35.84h150.2208c19.7632 0 35.84-16.0768 35.84-35.84s-15.9744-35.84-35.84-35.84zM930.816 60.7232H93.184c-19.7632 0-35.84 16.0768-35.84 35.84V671.4368c0 19.7632 16.0768 35.84 35.84 35.84h837.632c19.7632 0 35.84-16.0768 35.84-35.84v-574.8736c0-19.7632-16.0768-35.84-35.84-35.84z m-801.792 71.68h765.952V635.5968H129.024v-503.1936z"  horiz-adv-x="1024" />

    
    <glyph glyph-name="tianjiagongying" unicode="&#59002;" d="M199.1424-0.9344H96.72704c-24.7424 0-44.8 20.0576-44.8 44.8V455.35104c0 117.86752 95.89248 213.76 213.76 213.76h69.09568c24.7424 0 44.8-20.0576 44.8-44.8s-20.0576-44.8-44.8-44.8h-69.09568c-68.46208 0-124.16-55.69792-124.16-124.16V88.6656h57.61536c24.7424 0 44.8-20.0576 44.8-44.8s-20.0576-44.8-44.8-44.8zM277.536-75.82592c-67.94624 0-123.22432 55.27808-123.22432 123.22304 0 67.94624 55.27808 123.22432 123.22432 123.22432 67.94624 0 123.22304-55.27808 123.22304-123.22432 0-67.94624-55.2768-123.22304-123.22304-123.22304z m0 156.84608c-18.5408 0-33.62432-15.08352-33.62432-33.62432s15.08352-33.62304 33.62432-33.62304c18.53952 0 33.62304 15.08224 33.62304 33.62304s-15.08224 33.62432-33.62304 33.62432zM465.85856-0.9344h-104.31872c-24.7424 0-44.8 20.0576-44.8 44.8s20.0576 44.8 44.8 44.8h59.51872V743.9872c0 55.05152 44.78848 99.84 99.84 99.84h406.37312c24.7424 0 44.8-20.0576 44.8-44.8s-20.0576-44.8-44.8-44.8H520.89856c-5.55136 0-10.24-4.68992-10.24-10.24v-700.1216c0-24.74368-20.0576-44.8-44.8-44.8zM771.7248 621.11744H569.8048c-24.7424 0-44.8 20.0576-44.8 44.8s20.0576 44.8 44.8 44.8h201.92c24.7424 0 44.8-20.0576 44.8-44.8s-20.0576-44.8-44.8-44.8zM706.336 480.31744H569.8048c-24.7424 0-44.8 20.0576-44.8 44.8s20.0576 44.8 44.8 44.8h136.5312c24.7424 0 44.8-20.0576 44.8-44.8s-20.0576-44.8-44.8-44.8zM914.47296 164.71808h-201.92c-24.7424 0-44.8 20.0576-44.8 44.8s20.0576 44.8 44.8 44.8h201.92c24.7424 0 44.8-20.0576 44.8-44.8s-20.0576-44.8-44.8-44.8zM813.51296 63.75808c-24.7424 0-44.8 20.0576-44.8 44.8v201.92c0 24.7424 20.0576 44.8 44.8 44.8s44.8-20.0576 44.8-44.8v-201.92c0-24.74368-20.0576-44.8-44.8-44.8z"  horiz-adv-x="1024" />

    
    <glyph glyph-name="shoucang" unicode="&#59003;" d="M905.05088 792.49024c-24.99328 24.99328-57.75232 37.48992-90.51008 37.48992h-614.4c-32.75776 0-65.51552-12.49664-90.5088-37.48992s-37.4912-57.75232-37.4912-90.51008v-614.4c0-32.75776 12.49664-65.51552 37.4912-90.51008 24.99328-24.992 57.75104-37.48992 90.5088-37.48992h614.4c32.75776 0 65.5168 12.49792 90.51008 37.48992 24.99328 24.99456 37.48992 57.75232 37.48992 90.51008v614.4c0 32.75776-12.49536 65.51552-37.48992 90.51008z m-74.03264-338.1696l-163.96672-119.12832c-4.22656-3.07072-7.56224-7.45088-9.30048-12.8s-1.61536-10.85312 0-15.8208l62.6304-192.7552c2.88256-8.86912-0.08192-18.94656-8.032-24.7232-7.95008-5.77536-18.44992-5.48096-25.9968 0.00256l-163.96544 119.12704c-4.22784 3.06944-9.42336 4.88832-15.04768 4.88832s-10.82112-1.8176-15.04768-4.88832l-163.96544-119.12704c-7.5456-5.48352-18.04672-5.77792-25.99552 0-7.95008 5.77536-10.91584 15.8528-8.03328 24.72192l62.62912 192.75264c1.61408 4.96896 1.73824 10.47424 0 15.82208s-5.07264 9.73056-9.30048 12.8l-163.96672 119.12832c-7.5456 5.48224-11.06944 15.37792-8.03328 24.7232 3.03744 9.344 11.70432 15.27936 21.0304 15.27936h202.67392c5.22496 0 10.49728 1.58208 15.0464 4.88832s7.68512 7.83104 9.30048 12.8l62.6304 192.75776c2.88256 8.86912 11.20384 15.28064 21.02912 15.28064s18.14912-6.41152 21.02912-15.28064l62.6304-192.75776c1.61536-4.96896 4.75008-9.49376 9.30048-12.8s9.82272-4.88832 15.04768-4.88832h202.6752c9.32608 0 17.99424-5.93536 21.0304-15.27936 3.04-9.34528-0.48512-19.24096-8.032-24.7232z"  horiz-adv-x="1024" />

    
    <glyph glyph-name="yifahuo" unicode="&#59004;" d="M199.1424-0.9344H96.72704c-24.7424 0-44.8 20.0576-44.8 44.8V455.35104c0 117.86752 95.89248 213.76 213.76 213.76h69.09568c24.7424 0 44.8-20.0576 44.8-44.8s-20.0576-44.8-44.8-44.8h-69.09568c-68.46208 0-124.16-55.69792-124.16-124.16V88.6656h57.61536c24.7424 0 44.8-20.0576 44.8-44.8s-20.0576-44.8-44.8-44.8zM277.536-75.82848c-67.94624 0-123.22432 55.27936-123.22432 123.2256s55.27808 123.22432 123.22432 123.22432c67.94624 0 123.22432-55.27808 123.22432-123.22432s-55.27808-123.2256-123.22432-123.2256z m0 156.84864c-18.5408 0-33.62432-15.08352-33.62432-33.62432 0-18.5408 15.08352-33.6256 33.62432-33.6256 18.53952 0 33.62432 15.08352 33.62432 33.6256 0 18.5408-15.08352 33.62432-33.62432 33.62432zM465.85856-0.9344h-104.31872c-24.7424 0-44.8 20.0576-44.8 44.8s20.0576 44.8 44.8 44.8h59.51872V743.9872c0 55.05152 44.78848 99.84 99.84 99.84h406.37312c24.7424 0 44.8-20.0576 44.8-44.8s-20.0576-44.8-44.8-44.8H520.89856c-5.55136 0-10.24-4.68992-10.24-10.24v-700.1216c0-24.74368-20.0576-44.8-44.8-44.8zM771.7248 621.11744H569.8048c-24.7424 0-44.8 20.0576-44.8 44.8s20.0576 44.8 44.8 44.8h201.92c24.7424 0 44.8-20.0576 44.8-44.8s-20.0576-44.8-44.8-44.8zM706.336 480.31744H569.8048c-24.7424 0-44.8 20.0576-44.8 44.8s20.0576 44.8 44.8 44.8h136.5312c24.7424 0 44.8-20.0576 44.8-44.8s-20.0576-44.8-44.8-44.8z"  horiz-adv-x="1024" />

    
    <glyph glyph-name="yiwancheng" unicode="&#59005;" d="M199.1424-0.9344H96.72704c-24.7424 0-44.8 20.0576-44.8 44.8V455.35104c0 117.86752 95.89248 213.76 213.76 213.76h69.09568c24.7424 0 44.8-20.0576 44.8-44.8s-20.0576-44.8-44.8-44.8h-69.09568c-68.46208 0-124.16-55.69792-124.16-124.16V88.6656h57.61536c24.7424 0 44.8-20.0576 44.8-44.8s-20.0576-44.8-44.8-44.8zM277.536-75.82848c-67.94624 0-123.22432 55.27936-123.22432 123.2256s55.27808 123.22432 123.22432 123.22432c67.94624 0 123.22432-55.27808 123.22432-123.22432s-55.27808-123.2256-123.22432-123.2256z m0 156.84864c-18.5408 0-33.62432-15.08352-33.62432-33.62432 0-18.5408 15.08352-33.6256 33.62432-33.6256 18.53952 0 33.62432 15.08352 33.62432 33.6256 0 18.5408-15.08352 33.62432-33.62432 33.62432zM465.85856-0.9344h-104.31872c-24.7424 0-44.8 20.0576-44.8 44.8s20.0576 44.8 44.8 44.8h59.51872V743.9872c0 55.05152 44.78848 99.84 99.84 99.84h406.37312c24.7424 0 44.8-20.0576 44.8-44.8s-20.0576-44.8-44.8-44.8H520.89856c-5.55136 0-10.24-4.68992-10.24-10.24v-700.1216c0-24.74368-20.0576-44.8-44.8-44.8zM771.7248 621.11744H569.8048c-24.7424 0-44.8 20.0576-44.8 44.8s20.0576 44.8 44.8 44.8h201.92c24.7424 0 44.8-20.0576 44.8-44.8s-20.0576-44.8-44.8-44.8zM706.336 480.31744H569.8048c-24.7424 0-44.8 20.0576-44.8 44.8s20.0576 44.8 44.8 44.8h136.5312c24.7424 0 44.8-20.0576 44.8-44.8s-20.0576-44.8-44.8-44.8zM696.288 120.416c-10.64576 0-21.2928 4.06144-29.4144 12.18432l-122.87488 122.8736c-16.24576 16.24576-16.24576 42.58688-0.00128 58.83136 16.24704 16.24704 42.58688 16.24576 58.83136 0.00128l122.87488-122.8736c16.24576-16.24576 16.24576-42.58688 0.00128-58.83136-8.12544-8.12416-18.7712-12.1856-29.41696-12.1856zM696.288 120.416c-10.64576 0-21.2928 4.06144-29.4144 12.1856-16.24576 16.24448-16.24576 42.5856 0 58.83008l230.98624 230.98624c16.24448 16.24576 42.5856 16.24576 58.83008 0 16.24576-16.24576 16.24576-42.5856 0-58.83136L725.70368 132.6016c-8.12416-8.12416-18.76992-12.1856-29.41568-12.1856z"  horiz-adv-x="1024" />

    
    <glyph glyph-name="daishenhe" unicode="&#59006;" d="M199.1424-0.9344H96.72704c-24.7424 0-44.8 20.0576-44.8 44.8V455.35104c0 117.86752 95.89248 213.76 213.76 213.76h69.09568c24.7424 0 44.8-20.0576 44.8-44.8s-20.0576-44.8-44.8-44.8h-69.09568c-68.46208 0-124.16-55.69792-124.16-124.16V88.6656h57.61536c24.7424 0 44.8-20.0576 44.8-44.8s-20.0576-44.8-44.8-44.8zM277.536-75.82848c-67.94624 0-123.22432 55.27936-123.22432 123.2256s55.27808 123.22432 123.22432 123.22432c67.94624 0 123.22432-55.27808 123.22432-123.22432s-55.27808-123.2256-123.22432-123.2256z m0 156.84864c-18.5408 0-33.62432-15.08352-33.62432-33.62432 0-18.5408 15.08352-33.6256 33.62432-33.6256 18.53952 0 33.62432 15.08352 33.62432 33.6256 0 18.5408-15.08352 33.62432-33.62432 33.62432zM465.85856-0.9344h-104.31872c-24.7424 0-44.8 20.0576-44.8 44.8s20.0576 44.8 44.8 44.8h59.51872V743.9872c0 55.05152 44.78848 99.84 99.84 99.84h406.37312c24.7424 0 44.8-20.0576 44.8-44.8s-20.0576-44.8-44.8-44.8H520.89856c-5.55136 0-10.24-4.68992-10.24-10.24v-700.1216c0-24.74368-20.0576-44.8-44.8-44.8zM771.7248 621.11744H569.8048c-24.7424 0-44.8 20.0576-44.8 44.8s20.0576 44.8 44.8 44.8h201.92c24.7424 0 44.8-20.0576 44.8-44.8s-20.0576-44.8-44.8-44.8zM706.336 480.31744H569.8048c-24.7424 0-44.8 20.0576-44.8 44.8s20.0576 44.8 44.8 44.8h136.5312c24.7424 0 44.8-20.0576 44.8-44.8s-20.0576-44.8-44.8-44.8zM761.13024-52.66816c-126.67136 0-229.72544 103.05536-229.72544 229.72672S634.45888 406.784 761.13024 406.784s229.72672-103.05408 229.72672-229.72544-103.05536-229.72672-229.72672-229.72672z m0 382.65088c-84.32384 0-152.92544-68.6016-152.92544-152.92544s68.6016-152.92672 152.92544-152.92672 152.92672 68.60288 152.92672 152.92672-68.60288 152.92544-152.92672 152.92544zM761.13024 138.65728c-21.20704 0-38.4 17.19296-38.4 38.4v84.79488c0 21.20704 17.19296 38.4 38.4 38.4s38.4-17.19296 38.4-38.4v-84.79488c0-21.20704-17.19296-38.4-38.4-38.4zM847.22688 138.65728h-86.09792c-21.20704 0-38.4 17.19296-38.4 38.4s17.19296 38.4 38.4 38.4h86.09792c21.20704 0 38.4-17.19296 38.4-38.4s-17.19168-38.4-38.4-38.4z"  horiz-adv-x="1024" />

    
    <glyph glyph-name="yiquxiao" unicode="&#59007;" d="M199.1424-0.9344H96.72704c-24.7424 0-44.8 20.0576-44.8 44.8V455.35104c0 117.86752 95.89248 213.76 213.76 213.76h69.09568c24.7424 0 44.8-20.0576 44.8-44.8s-20.0576-44.8-44.8-44.8h-69.09568c-68.46208 0-124.16-55.69792-124.16-124.16V88.6656h57.61536c24.7424 0 44.8-20.0576 44.8-44.8s-20.0576-44.8-44.8-44.8zM277.536-75.82592c-67.94624 0-123.22432 55.27808-123.22432 123.22304 0 67.94624 55.27808 123.22432 123.22432 123.22432 67.94624 0 123.22304-55.27808 123.22304-123.22432 0-67.94624-55.2768-123.22304-123.22304-123.22304z m0 156.84608c-18.5408 0-33.62432-15.08352-33.62432-33.62432s15.08352-33.62304 33.62432-33.62304c18.53952 0 33.62304 15.08224 33.62304 33.62304s-15.08224 33.62432-33.62304 33.62432zM465.85856-0.9344h-104.31872c-24.7424 0-44.8 20.0576-44.8 44.8s20.0576 44.8 44.8 44.8h59.51872V743.9872c0 55.05152 44.78848 99.84 99.84 99.84h406.37312c24.7424 0 44.8-20.0576 44.8-44.8s-20.0576-44.8-44.8-44.8H520.89856c-5.55136 0-10.24-4.68992-10.24-10.24v-700.1216c0-24.74368-20.0576-44.8-44.8-44.8zM771.7248 621.11744H569.8048c-24.7424 0-44.8 20.0576-44.8 44.8s20.0576 44.8 44.8 44.8h201.92c24.7424 0 44.8-20.0576 44.8-44.8s-20.0576-44.8-44.8-44.8zM706.336 480.31744H569.8048c-24.7424 0-44.8 20.0576-44.8 44.8s20.0576 44.8 44.8 44.8h136.5312c24.7424 0 44.8-20.0576 44.8-44.8s-20.0576-44.8-44.8-44.8zM744.28416-18.2272c-122.0736 0-221.38752 99.3152-221.38752 221.3888 0 122.07488 99.31392 221.3888 221.38752 221.3888s221.3888-99.31392 221.3888-221.3888c0-122.0736-99.3152-221.3888-221.3888-221.3888z m0 365.9776c-79.72608 0-144.58752-64.86272-144.58752-144.5888s64.86144-144.5888 144.58752-144.5888 144.5888 64.86272 144.5888 144.5888-64.86272 144.5888-144.5888 144.5888zM789.08544 119.9616c-9.82784 0-19.6544 3.74912-27.15264 11.24736l-89.6 89.6c-14.99648 14.99648-14.99648 39.3088 0 54.30528 14.9952 14.99776 39.31008 14.99776 54.30528 0l89.6-89.6c14.99648-14.99648 14.99648-39.3088 0-54.30528-7.49824-7.49952-17.32608-11.24736-27.15264-11.24736zM699.48544 119.9616c-9.82784 0-19.6544 3.74912-27.15264 11.24736-14.99648 14.99648-14.99648 39.3088 0 54.30528l89.6 89.6c14.9952 14.99776 39.31008 14.99776 54.30528 0 14.99648-14.99648 14.99648-39.3088 0-54.30528l-89.6-89.6c-7.49824-7.49952-17.32608-11.24736-27.15264-11.24736z"  horiz-adv-x="1024" />

    
    <glyph glyph-name="jianhuozhong" unicode="&#59008;" d="M199.1424-0.9344H96.72704c-24.7424 0-44.8 20.0576-44.8 44.8V455.35104c0 117.86752 95.89248 213.76 213.76 213.76h69.09568c24.7424 0 44.8-20.0576 44.8-44.8s-20.0576-44.8-44.8-44.8h-69.09568c-68.46208 0-124.16-55.69792-124.16-124.16V88.6656h57.61536c24.7424 0 44.8-20.0576 44.8-44.8s-20.0576-44.8-44.8-44.8zM277.536-75.82848c-67.94624 0-123.22432 55.27936-123.22432 123.2256s55.27808 123.22432 123.22432 123.22432c67.94624 0 123.22432-55.27808 123.22432-123.22432s-55.27808-123.2256-123.22432-123.2256z m0 156.84864c-18.5408 0-33.62432-15.08352-33.62432-33.62432 0-18.5408 15.08352-33.6256 33.62432-33.6256 18.53952 0 33.62432 15.08352 33.62432 33.6256 0 18.5408-15.08352 33.62432-33.62432 33.62432zM465.85856-0.9344h-104.31872c-24.7424 0-44.8 20.0576-44.8 44.8s20.0576 44.8 44.8 44.8h59.51872V743.9872c0 55.05152 44.78848 99.84 99.84 99.84h406.37312c24.7424 0 44.8-20.0576 44.8-44.8s-20.0576-44.8-44.8-44.8H520.89856c-5.55136 0-10.24-4.68992-10.24-10.24v-700.1216c0-24.74368-20.0576-44.8-44.8-44.8zM771.7248 621.11744H569.8048c-24.7424 0-44.8 20.0576-44.8 44.8s20.0576 44.8 44.8 44.8h201.92c24.7424 0 44.8-20.0576 44.8-44.8s-20.0576-44.8-44.8-44.8zM706.336 480.31744H569.8048c-24.7424 0-44.8 20.0576-44.8 44.8s20.0576 44.8 44.8 44.8h136.5312c24.7424 0 44.8-20.0576 44.8-44.8s-20.0576-44.8-44.8-44.8zM658.35264 196.57088c-9.82784 0-19.6544 3.74912-27.15264 11.24608-14.99648 14.99648-14.99648 39.31008 0 54.30656l84.4736 84.47616c14.99776 14.99776 39.31136 14.99776 54.30656 0 14.99648-14.9952 14.99648-39.3088 0-54.30528l-84.4736-84.47616c-7.49952-7.49824-17.32608-11.24736-27.15392-11.24736zM742.82752 112.096c-9.82912 0-19.65312 3.74912-27.15392 11.24736l-84.4736 84.47616c-14.99648 14.99648-14.99648 39.31008 0 54.30528 14.99776 14.99648 39.3088 14.99648 54.30656 0l84.4736-84.47616c14.99648-14.99648 14.99648-39.31008 0-54.30656-7.49824-7.49568-17.32608-11.24608-27.15264-11.24608zM927.27296 196.57088H658.35264c-21.20704 0-38.4 17.19296-38.4 38.4s17.19296 38.4 38.4 38.4h268.92032c21.20704 0 38.4-17.19296 38.4-38.4s-17.19296-38.4-38.4-38.4z"  horiz-adv-x="1024" />

    
    <glyph glyph-name="zhuye" unicode="&#58931;" d="M752.623585-108.22326099999998H600.67230601a21.965365 21.965365 0 0 0-21.96536501 21.965365V215.970232c0 4.074008 0.079107 7.910696 0.14503 11.549616a154.79912999 154.79912999 0 0 1-0.22413699 16.572907 41.610259 41.610259 0 0 1-6.17034201 0.38235H452.359947a41.04332601 41.04332601 0 0 1-6.183527-0.38235 154.627731 154.627731 0 0 1-0.224137-16.559723c0.06592199-3.63892 0.145029-7.488792 0.14503-11.5628v-302.228128a21.965365 21.965365 0 0 0-21.952181-21.965365H272.20703801c-74.307801 0-134.79825399 66.331183-134.79825401 147.850902V303.25157401h-30.32433399c-37.654911 0-67.240913 18.181416-81.28239801 49.89012099-11.365033 25.84160599-9.37417399 68.11109001 30.32433401 109.36536701L412.977867 833.75600999a137.63292 137.63292 0 0 0 198.874889 2e-8L968.796529 462.50706201c39.632585-41.241093 41.623444-83.52376201 30.32433301-109.32581401-14.107407-31.748259-43.70659401-49.92967399-81.34832-49.92967399h-30.32433401v-263.62393301c0-81.519719-60.503637-147.85090199-134.824623-147.850902z m-129.985914 43.917546h129.985914c56.13956999 0 90.880709 53.950944 90.88070899 103.94654101v285.57611299a21.965365 21.965365 0 0 0 21.95218 21.95218h52.316068c20.317303 0 34.147836 7.97661801 41.109248 23.73208701 1.924936 4.390436 10.020215 28.122523-21.75441299 61.17604699L580.249527 803.3130160000001a93.715375 93.715375 0 0 1-135.562955 0L87.690061 432.077253c-31.774628-33.066708-23.732087-56.798795-21.728044-61.2156 6.935043-15.715915 20.765576-23.732087 41.08288-23.73208701h52.329252a21.95218 21.95218 0 0 0 21.95218-21.96536499v-285.576113c0-49.982412 34.74113801-103.933357 90.88070901-103.933357h130.051836V215.970232c0 3.770765-0.06592199 7.34376201-0.13184501 10.705808-0.355981 18.36599801-0.69877799 35.729975 12.076996 48.782623 11.40458601 11.628723 27.2919 12.973541 38.23502901 12.973541h120.09754499c10.956313 0 26.830443-1.318449 38.235029-12.973541 12.762589-13.01309401 12.432977-30.324333 12.076995-48.782623 0-3.36204599-0.131845-6.935043-0.13184499-10.705808z m0 0M752.623585-128H600.67230601a41.78165801 41.78165801 0 0 0-41.742104 41.742104V215.970232c0 3.05880201 0 5.94620599 0.09229099 8.71495001h-93.227548c0-2.781928 0.092291-5.656147 0.092292-8.71495001v-302.228128a41.78165801 41.78165801 0 0 0-41.742105-41.742104H272.20703801c-85.23774601 0-154.574993 75.151609-154.57499401 167.627641V283.474835h-10.54759399c-45.170072 0-82.323973 23.05967801-99.37152201 61.690242-13.949193 31.642783-12.314316 82.759061 34.095099 131.053858l356.90421901 371.23576301a157.409659 157.409659 0 0 0 227.37976199-2e-8l357.365677-371.60492899c46.01388-48.162952 47.609203-99.002356 33.712748-130.52647901-17.139841-38.670117-54.241003-61.729795-99.39789099-61.72979499h-10.54759401v-243.965854c0-92.476032-69.376801-167.627641-154.601363-167.627641zM452.359947 264.251844h120.097545a61.74298 61.74298 0 0 0 9.110484-0.672409l14.898477-2.267732 1.806275-14.872108a154.39041001 154.39041001 0 0 0 0.35598199-19.117515v-0.435088c-0.06592199-3.493891-0.131845-7.10644201-0.13184499-10.890391v-302.254497a2.18862601 2.18862601 0 0 1 2.188626-2.18862601h151.938094c63.41740999 0 115.021515 57.458019 115.021515 128.07416301V323.028313h50.101073c29.889245 0 52.329252 13.54047401 63.206458 38.142738 8.767688 19.921769 6.434032 53.423565-26.434908 87.63732301l-0.395535 0.40871899L597.587135 820.044137a117.856181 117.856181 0 0 1-170.370016 0L70.286531 448.79519001c-32.86894-34.20057401-35.202596-67.728739-26.368986-87.69006201 10.837653-24.54952599 33.27766-38.09 63.18009-38.089999h50.101072v-283.387488c0-70.629328 51.59092-128.074163 115.02151501-128.07416301H424.145132a2.18862601 2.18862601 0 0 1 2.18862601 2.18862601V215.970232c0 3.81031799-0.06592199 7.44923801-0.13184501 10.96949801v0.435088a154.16627399 154.16627399 0 0 0 0.355982 19.03840798l1.766722 14.91166101 14.80618499 2.254548a60.899172 60.899172 0 0 0 9.22914501 0.672409z m300.250454-348.334299H602.847747V215.970232c0 3.783949 0.06592199 7.251471 0.131845 10.54759399v0.46145701c0.342797 17.522191 0.210952 27.76654201-6.420848 34.517002-4.77278601 4.86507799-12.20884 7.040519-24.114437 7.04052H452.359947c-11.866043 0-19.341651-2.175441-24.11443701-7.04052-6.59224601-6.75046-6.75046-16.994811-6.420848-34.503817 0-3.309308 0.145029-7.066888 0.14502901-11.088159v-299.986764H272.20703801c-31.972395 0-61.083755 14.50294199-81.967992 40.68734501a135.576139 135.576139 0 0 0-28.689456 83.06230499V325.216939a2.18862601 2.18862601 0 0 1-2.17544101 2.188626H107.044897c-28.069785 0-49.085867 12.604375-59.185188 35.47947-3.955348 9.070931-13.936009 41.79484201 25.564731 82.90409L430.368213 817.011704a113.49211401 113.49211401 0 0 0 164.067828 0L951.39299799 445.789125c39.487556-41.082879 29.58600201-73.83316 25.60428501-82.838168-10.152059-22.941017-31.168141-35.59812999-59.21155701-35.59813h-52.329252a2.175441 2.175441 0 0 1-2.17544099-2.17544099v-285.57611401a135.576139 135.576139 0 0 0-28.689456-83.062304c-20.884237-26.17121799-49.982412-40.62142199-81.967992-40.621423z m-110.20917501 39.553479h110.20917501c34.20057401 0 71.10396999 32.183347 71.10396899 84.16980201v285.57611299a41.78165801 41.78165801 0 0 0 41.72892 41.72892h52.329252c15.623624 0 20.409595 6.03849799 23.020124 11.94515 0.197767 0.514195 5.656147 14.93802999-17.93090999 39.474371L565.931168 789.640697a73.938635 73.938635 0 0 1-107.07126599 0L101.94249799 418.36538c-23.58705799-24.54952599-18.115493-38.973361-17.86498798-39.55347799 2.636899-5.82754601 7.33057799-11.866043 22.96738699-11.86604301h52.329252a41.78165801 41.78165801 0 0 0 41.728919-41.74210499v-285.57611301c0-40.476393 27.186424-84.156617 71.10396999-84.156617h110.27509701V215.970232c0 3.625736-0.06592199 7.185549-0.13184501 10.310273-0.38235001 19.618525-0.856992 44.03620601 17.71995901 62.982322s43.996652 18.89337799 52.35562 18.893378h120.09754499c8.358968 0 33.818224 0 52.35562101-18.893378s18.102309-43.363797 17.73314299-62.982322v-0.461457c0-3.16427799-0.11866-6.447217-0.11866099-9.848816z"  horiz-adv-x="1024" />

    


  </font>
</defs>
</svg>
